<svg width="24" height="12" viewBox="0 0 24 12" xmlns="http://www.w3.org/2000/svg">
<g clip-path="url(#clip0_24_44)">
<path d="M23.6137 5.06459L18.9074 0.382359C18.4476 -0.0751192 17.6906 -0.143154 17.2072 0.290863C16.6917 0.752095 16.6761 1.54271 17.1605 2.02506L19.2936 4.14775C19.5346 4.38752 19.3639 4.79667 19.0234 4.79667H11.3312C10.6804 4.79667 10.0975 5.28136 10.0635 5.92793C10.0272 6.61673 10.578 7.18776 11.2633 7.18776H19.0234C19.3639 7.18776 19.5346 7.59737 19.2936 7.83667L17.2086 9.91151C16.7488 10.369 16.6809 11.1221 17.1162 11.6025C17.5802 12.1154 18.3754 12.1309 18.8598 11.6495L23.6137 6.91937C24.1287 6.40746 24.1287 5.57649 23.6137 5.06459Z"/>
<path d="M6.81118 4.79675H5.42649C4.76291 4.79675 4.22479 5.33212 4.22479 5.9923C4.22479 6.65247 4.76291 7.18784 5.42649 7.18784H6.81118C7.47475 7.18784 8.0124 6.65247 8.0124 5.9923C8.0124 5.33212 7.47475 4.79675 6.81118 4.79675Z"/>
<path d="M1.33092 4.79675H1.20123C0.538123 4.79675 0 5.33259 0 5.99276C0 6.65294 0.538123 7.18831 1.20123 7.18831H1.33045C1.9945 7.18831 2.53168 6.65294 2.53168 5.99276C2.53168 5.33259 1.9945 4.79675 1.33092 4.79675Z"/>
</g>
<defs>
<clipPath id="clip0_24_44">
<rect width="24" height="12"/>
</clipPath>
</defs>
</svg>
