<svg xmlns="http://www.w3.org/2000/svg" xmlns:xlink="http://www.w3.org/1999/xlink" xmlns:svg="http://www.w3.org/2000/svg"><defs>
<clipPath id="clip0_184_1434">
<rect width="20" height="20"/>
</clipPath>

<clipPath id="clip0_24_44">
<rect width="24" height="12"/>
</clipPath>

<clipPath id="clip0_1343_5">
<rect width="12" height="12" fill="white"/>
</clipPath>
<clipPath id="clip1_1343_5">
<rect width="12" height="12" fill="white" transform="translate(17)"/>
</clipPath>
<clipPath id="clip2_1343_5">
<rect width="12" height="12" fill="white" transform="translate(34)"/>
</clipPath>
<clipPath id="clip3_1343_5">
<rect width="12" height="12" fill="white" transform="translate(51)"/>
</clipPath>
<clipPath id="clip4_1343_5">
<rect width="12" height="12" fill="white" transform="translate(68)"/>
</clipPath>

<clipPath id="clip0_65_1020">
<rect width="16" height="16" fill="transparent"/>
</clipPath>
</defs><symbol id="basket" viewBox="0 0 20 20">
<g clip-path="url(#clip0_184_1434)">
<path d="M8.38639 15.7356C7.41651 15.7356 6.62744 16.5247 6.62744 17.4945C6.62744 18.4644 7.41651 19.2535 8.38639 19.2535C9.35627 19.2535 10.1453 18.4644 10.1453 17.4945C10.1453 16.5247 9.35624 15.7356 8.38639 15.7356ZM8.38639 18.2713C7.95803 18.2713 7.60955 17.9228 7.60955 17.4945C7.60955 17.0661 7.95807 16.7176 8.38639 16.7176C8.81471 16.7176 9.16323 17.0661 9.16323 17.4945C9.16323 17.9229 8.81471 18.2713 8.38639 18.2713Z"/>
<path d="M14.5558 15.7356C13.5859 15.7356 12.7969 16.5247 12.7969 17.4945C12.7969 18.4644 13.5859 19.2535 14.5558 19.2535C15.5257 19.2535 16.3148 18.4644 16.3148 17.4945C16.3147 16.5247 15.5257 15.7356 14.5558 15.7356ZM14.5558 18.2713C14.1275 18.2713 13.779 17.9228 13.779 17.4945C13.779 17.0661 14.1275 16.7176 14.5558 16.7176C14.9842 16.7176 15.3327 17.0661 15.3327 17.4945C15.3327 17.9229 14.9841 18.2713 14.5558 18.2713Z"/>
<path d="M19.779 4.28682C19.5918 4.05698 19.3143 3.92518 19.0177 3.92518H3.72182L3.41292 2.42561C3.34843 2.1128 3.13507 1.85014 2.84206 1.72291L0.686699 0.787364C0.43787 0.679278 0.14869 0.793458 0.0407599 1.04221C-0.0672873 1.29104 0.0468927 1.58026 0.295604 1.68819L2.451 2.62377L4.82702 14.1574C4.92062 14.6116 5.32515 14.9413 5.78894 14.9413H17.5533C17.8245 14.9413 18.0443 14.7215 18.0443 14.4503C18.0443 14.1791 17.8245 13.9592 17.5533 13.9592H5.78898L5.49995 12.5563H17.6442C18.108 12.5563 18.5125 12.2266 18.6061 11.7723L19.9796 5.10534C20.0394 4.81503 19.9663 4.51663 19.779 4.28682ZM17.6442 11.5742H5.29765L3.92417 4.90726L19.0177 4.90729L17.6442 11.5742Z"/>
</g>

</symbol><symbol id="close" viewBox="0 0 30 30">
<path fill-rule="evenodd" clip-rule="evenodd" d="M13.5613 0.0363773C10.0067 0.404682 6.82776 1.91995 4.31986 4.4413C1.98994 6.78378 0.564466 9.70978 0.0737256 13.1572C-0.0245752 13.848 -0.0245752 16.1659 0.0737256 16.8567C0.574097 20.3715 2.01214 23.2774 4.43924 25.6778C6.82988 28.0422 9.69352 29.4411 13.1503 29.9332C13.8357 30.0307 16.1571 30.0314 16.8497 29.9343C20.5405 29.4165 23.6065 27.8254 26.0903 25.139C28.1516 22.9094 29.4698 20.0631 29.9263 16.8567C30.0246 16.1659 30.0246 13.848 29.9263 13.1572C29.5789 10.717 28.8061 8.64251 27.5224 6.70368C26.9764 5.87922 26.4315 5.21408 25.6716 4.44447C23.3346 2.07785 20.4216 0.609211 17.0846 0.115124C16.3646 0.00848431 14.28 -0.0380823 13.5613 0.0363773ZM16.6829 1.5914C18.2391 1.7954 19.6012 2.20516 20.9603 2.87829C22.4482 3.6152 23.5748 4.43701 24.7221 5.62267C27.1871 8.16997 28.5061 11.4412 28.5061 15.0069C28.5061 18.537 27.2107 21.7849 24.7926 24.3175C23.6423 25.5223 22.516 26.3537 21.0072 27.1117C19.1241 28.0577 17.1722 28.513 15 28.513C11.2561 28.513 7.83538 27.0518 5.22277 24.3366C2.80783 21.8268 1.49392 18.5394 1.49392 15.0069C1.49392 12.8546 1.9388 10.9297 2.87136 9.04664C3.61214 7.55081 4.44423 6.41271 5.63165 5.27116C7.74665 3.23791 10.3351 1.991 13.2677 1.59269C14.0901 1.481 15.8358 1.48035 16.6829 1.5914ZM10.9775 10.6001C10.663 10.7302 10.4721 11.1569 10.564 11.5245C10.591 11.6328 11.1706 12.257 12.2571 13.348L13.909 15.0069L12.2571 16.6658C11.1706 17.7568 10.591 18.3811 10.564 18.4894C10.4163 19.0803 10.9266 19.5907 11.5175 19.443C11.6258 19.4159 12.2501 18.8363 13.3411 17.7498L15 16.0979L16.6589 17.7498C17.7499 18.8363 18.3742 19.4159 18.4825 19.443C19.0734 19.5907 19.5837 19.0803 19.436 18.4894C19.409 18.3811 18.8294 17.7568 17.7429 16.6658L16.091 15.0069L17.7426 13.348C19.4999 11.5828 19.5352 11.5357 19.4363 11.0854C19.356 10.7195 18.8911 10.4688 18.4825 10.5709C18.3742 10.598 17.7496 11.1778 16.658 12.265L14.9981 13.9179L13.3989 12.327C12.5193 11.452 11.7343 10.6929 11.6544 10.6401C11.5008 10.5384 11.1734 10.519 10.9775 10.6001Z" fill="#7E83AE"/>
</symbol><symbol id="dotted_arrow" viewBox="0 0 24 12">
<g clip-path="url(#clip0_24_44)">
<path d="M23.6137 5.06459L18.9074 0.382359C18.4476 -0.0751192 17.6906 -0.143154 17.2072 0.290863C16.6917 0.752095 16.6761 1.54271 17.1605 2.02506L19.2936 4.14775C19.5346 4.38752 19.3639 4.79667 19.0234 4.79667H11.3312C10.6804 4.79667 10.0975 5.28136 10.0635 5.92793C10.0272 6.61673 10.578 7.18776 11.2633 7.18776H19.0234C19.3639 7.18776 19.5346 7.59737 19.2936 7.83667L17.2086 9.91151C16.7488 10.369 16.6809 11.1221 17.1162 11.6025C17.5802 12.1154 18.3754 12.1309 18.8598 11.6495L23.6137 6.91937C24.1287 6.40746 24.1287 5.57649 23.6137 5.06459Z"/>
<path d="M6.81118 4.79675H5.42649C4.76291 4.79675 4.22479 5.33212 4.22479 5.9923C4.22479 6.65247 4.76291 7.18784 5.42649 7.18784H6.81118C7.47475 7.18784 8.0124 6.65247 8.0124 5.9923C8.0124 5.33212 7.47475 4.79675 6.81118 4.79675Z"/>
<path d="M1.33092 4.79675H1.20123C0.538123 4.79675 0 5.33259 0 5.99276C0 6.65294 0.538123 7.18831 1.20123 7.18831H1.33045C1.9945 7.18831 2.53168 6.65294 2.53168 5.99276C2.53168 5.33259 1.9945 4.79675 1.33092 4.79675Z"/>
</g>

</symbol><symbol id="fb" viewBox="0 0 9 16">
<path d="M0.258065 8.5216H2.01192V15.7419C2.01192 15.8845 2.12743 16 2.26999 16H5.24372C5.38627 16 5.50178 15.8845 5.50178 15.7419V8.55561H7.51799C7.64908 8.55561 7.75938 8.45724 7.77435 8.32702L8.08057 5.66885C8.08898 5.59572 8.06581 5.52248 8.01688 5.46761C7.9679 5.4127 7.89781 5.38126 7.82426 5.38126H5.50188V3.71499C5.50188 3.2127 5.77234 2.95799 6.30581 2.95799C6.38183 2.95799 7.82426 2.95799 7.82426 2.95799C7.96681 2.95799 8.08232 2.84243 8.08232 2.69992V0.259974C8.08232 0.117419 7.96681 0.00190968 7.82426 0.00190968H5.73161C5.71685 0.0011871 5.68408 0 5.63577 0C5.27267 0 4.01058 0.0712774 3.01363 0.988439C1.90901 2.0048 2.06255 3.22173 2.09925 3.43272V5.38121H0.258065C0.11551 5.38121 0 5.49672 0 5.63928V8.26348C0 8.40604 0.11551 8.5216 0.258065 8.5216Z"/>
</symbol><symbol id="icon-close" viewBox="0 0 20 20"><path d="M.293 18.291a1 1 0 101.414 1.414L10 11.413l8.292 8.292a1 1 0 101.414-1.414l-8.292-8.292 8.292-8.292A1 1 0 1018.291.293L9.999 8.585 1.707.293A1 1 0 10.293 1.707L8.585 10 .293 18.291z"/></symbol><symbol id="instagram" viewBox="0 0 16 16">
<path d="M11.3523 0H4.64775C2.08497 0 0 2.08497 0 4.64775V11.3523C0 13.915 2.08497 16 4.64775 16H11.3523C13.915 16 16 13.915 16 11.3523V4.64775C16 2.08497 13.915 0 11.3523 0ZM14.75 11.3523C14.75 13.2258 13.2258 14.75 11.3523 14.75H4.64775C2.77422 14.75 1.25 13.2258 1.25 11.3523V4.64775C1.25 2.77422 2.77422 1.25 4.64775 1.25H11.3523C13.2258 1.25 14.75 2.77422 14.75 4.64775V11.3523Z"/>
<path d="M8 3.6875C5.62206 3.6875 3.6875 5.62206 3.6875 8C3.6875 10.3779 5.62206 12.3125 8 12.3125C10.3779 12.3125 12.3125 10.3779 12.3125 8C12.3125 5.62206 10.3779 3.6875 8 3.6875ZM8 11.0625C6.31134 11.0625 4.9375 9.68866 4.9375 8C4.9375 6.31134 6.31134 4.9375 8 4.9375C9.68866 4.9375 11.0625 6.31134 11.0625 8C11.0625 9.68866 9.68866 11.0625 8 11.0625Z"/>
<path d="M12.375 4.25C12.7202 4.25 13 3.97018 13 3.625C13 3.27982 12.7202 3 12.375 3C12.0298 3 11.75 3.27982 11.75 3.625C11.75 3.97018 12.0298 4.25 12.375 4.25Z"/>
</symbol><symbol id="loading" viewBox="0 0 128 128"><g><circle cx="16" cy="64" r="16" fill="#000000"/><circle cx="16" cy="64" r="16" fill="#555555" transform="rotate(45,64,64)"/><circle cx="16" cy="64" r="16" fill="#949494" transform="rotate(90,64,64)"/><circle cx="16" cy="64" r="16" fill="#cccccc" transform="rotate(135,64,64)"/><circle cx="16" cy="64" r="16" fill="#e1e1e1" transform="rotate(180,64,64)"/><circle cx="16" cy="64" r="16" fill="#e1e1e1" transform="rotate(225,64,64)"/><circle cx="16" cy="64" r="16" fill="#e1e1e1" transform="rotate(270,64,64)"/><circle cx="16" cy="64" r="16" fill="#e1e1e1" transform="rotate(315,64,64)"/><animateTransform attributeName="transform" type="rotate" values="0 64 64;315 64 64;270 64 64;225 64 64;180 64 64;135 64 64;90 64 64;45 64 64" calcMode="discrete" dur="720ms" repeatCount="indefinite"/></g></symbol><symbol id="play-button" viewBox="0 0 26 26">
<path d="M22.1924 3.80758C19.737 1.35225 16.4724 0 13 0C9.52758 0 6.263 1.35225 3.80758 3.80758C1.35225 6.263 0 9.52758 0 13C0 16.4724 1.35225 19.737 3.80758 22.1924C6.263 24.6477 9.52758 26 13 26C15.3772 26 17.7032 25.3521 19.7266 24.1265C20.2063 23.8359 20.3597 23.2113 20.0691 22.7316C19.7784 22.2518 19.1538 22.0985 18.6741 22.3891C16.9683 23.4225 15.0061 23.9688 13 23.9688C6.9518 23.9688 2.03125 19.0482 2.03125 13C2.03125 6.9518 6.9518 2.03125 13 2.03125C19.0482 2.03125 23.9688 6.9518 23.9688 13C23.9688 15.1627 23.3256 17.2679 22.1088 19.0879C21.7971 19.5541 21.9224 20.1849 22.3886 20.4966C22.855 20.8085 23.4857 20.6831 23.7974 20.2168C25.2384 18.0616 26 15.566 26 13C26 9.52758 24.6477 6.263 22.1924 3.80758Z" fill="#39B6C0"/>
<path d="M11.9166 7.68946C11.2012 7.27437 10.3463 7.27295 9.62979 7.6857C8.91057 8.09982 8.48122 8.84341 8.48122 9.67475V16.3253C8.48122 17.1566 8.91057 17.9002 9.62979 18.3144C9.98698 18.5201 10.3784 18.6229 10.7699 18.6229C11.1638 18.6229 11.5578 18.5187 11.9166 18.3105L17.6471 14.9853C18.3621 14.5704 18.789 13.8282 18.789 13C18.789 12.1718 18.3621 11.4296 17.6471 11.0147L11.9166 7.68946ZM16.6276 13.2284L10.8971 16.5536C10.7923 16.6145 10.7013 16.5874 10.6435 16.5541C10.5837 16.5197 10.5125 16.4521 10.5125 16.3253V9.67475C10.5125 9.54795 10.5837 9.48031 10.6435 9.44588C10.6763 9.42699 10.7197 9.41018 10.7702 9.41018C10.8089 9.41018 10.8517 9.42003 10.8971 9.44638L16.6276 12.7716C16.7353 12.834 16.7578 12.9303 16.7578 13C16.7578 13.0697 16.7353 13.166 16.6276 13.2284Z" fill="#39B6C0"/>
</symbol><symbol id="play" viewBox="0 0 11 13">
<path d="M10 4.76795C11.3333 5.53775 11.3333 7.46225 10 8.23205L3.25 12.1292C1.91666 12.899 0.249999 11.9367 0.249999 10.3971L0.25 2.60288C0.25 1.06328 1.91667 0.101034 3.25 0.870834L10 4.76795Z"/>
</symbol><symbol id="plus-btn" viewBox="0 0 14 14">
<path d="M6.99999 0C6.42003 0 5.94998 0.470054 5.94998 1.05001V12.95C5.94998 13.5299 6.42003 14 6.99999 14C7.57995 14 8.05001 13.5299 8.05001 12.95V1.05001C8.05001 0.470054 7.57995 0 6.99999 0Z" fill="white"/>
<path d="M12.95 5.95H1.05001C0.470054 5.95 0 6.42005 0 7.00001C0 7.57997 0.470054 8.05003 1.05001 8.05003H12.95C13.5299 8.05003 14 7.57997 14 7.00001C14 6.42005 13.5299 5.95 12.95 5.95Z" fill="white"/>
</symbol><symbol id="plus" viewBox="0 0 33 33">
<circle cx="16.5" cy="16.5" r="16.5" fill="#028ECE"/>
<path d="M16.0001 11C15.503 11 15.1001 11.4029 15.1001 11.9V22.1C15.1001 22.5971 15.503 23 16.0001 23C16.4972 23 16.9001 22.5971 16.9001 22.1V11.9C16.9001 11.4029 16.4972 11 16.0001 11Z" fill="white"/>
<path d="M21.1 16.1001H10.9C10.4029 16.1001 10 16.503 10 17.0001C10 17.4972 10.4029 17.9001 10.9 17.9001H21.1C21.5971 17.9001 22 17.4972 22 17.0001C22 16.503 21.5971 16.1001 21.1 16.1001Z" fill="white"/>
</symbol><symbol id="search" viewBox="0 0 20 20">
<path d="M8.448 0C3.79 0 0 3.79 0 8.448C0 13.106 3.79 16.896 8.448 16.896C13.106 16.896 16.896 13.106 16.896 8.448C16.896 3.79 13.1067 0 8.448 0ZM8.448 15.4187C4.60467 15.4187 1.47733 12.292 1.47733 8.448C1.47733 4.604 4.60467 1.478 8.448 1.478C12.2913 1.478 15.4187 4.60467 15.4187 8.44867C15.4187 12.2927 12.292 15.4187 8.448 15.4187ZM19.7833 18.7387L14.414 13.3693C14.1253 13.0807 13.658 13.0807 13.3693 13.3693C13.0807 13.658 13.0807 14.126 13.3693 14.414L18.7387 19.7833C18.8833 19.928 19.072 20 19.2613 20C19.4507 20 19.6393 19.928 19.784 19.7833C20.072 19.4953 20.072 19.0273 19.7833 18.7387Z"/>
</symbol><symbol id="stars" viewBox="0 0 80 12">
<g clip-path="url(#clip0_1343_5)">
<path d="M11.9827 4.6233C11.9413 4.49601 11.8313 4.40325 11.6989 4.38403L7.97885 3.84344L6.31515 0.47251C6.25594 0.352511 6.13372 0.27655 5.99991 0.27655C5.86609 0.27655 5.74388 0.352511 5.68466 0.47251L4.02088 3.84344L0.300897 4.38403C0.168499 4.40325 0.0584602 4.49601 0.0171166 4.62328C-0.0242504 4.75056 0.0102494 4.89027 0.106085 4.98367L2.79782 7.60759L2.16248 11.3126C2.13984 11.4445 2.19408 11.5778 2.30233 11.6565C2.36358 11.701 2.43611 11.7236 2.50901 11.7236C2.56497 11.7236 2.62113 11.7103 2.67255 11.6832L5.99989 9.93391L9.32709 11.6832C9.44556 11.7455 9.58907 11.7351 9.69733 11.6565C9.80559 11.5778 9.85984 11.4445 9.83723 11.3126L9.20167 7.60759L11.8937 4.98365C11.9895 4.89027 12.0241 4.75056 11.9827 4.6233Z"/>
</g>
<g clip-path="url(#clip1_1343_5)">
<path d="M28.9827 4.6233C28.9413 4.49601 28.8313 4.40325 28.6989 4.38403L24.9789 3.84344L23.3151 0.47251C23.2559 0.352511 23.1337 0.27655 22.9999 0.27655C22.8661 0.27655 22.7439 0.352511 22.6847 0.47251L21.0209 3.84344L17.3009 4.38403C17.1685 4.40325 17.0585 4.49601 17.0171 4.62328C16.9757 4.75056 17.0102 4.89028 17.1061 4.98367L19.7978 7.60759L19.1625 11.3126C19.1398 11.4445 19.1941 11.5778 19.3023 11.6565C19.3636 11.701 19.4361 11.7236 19.509 11.7236C19.565 11.7236 19.6211 11.7103 19.6726 11.6832L22.9999 9.93391L26.3271 11.6832C26.4456 11.7455 26.5891 11.7351 26.6973 11.6565C26.8056 11.5778 26.8598 11.4445 26.8372 11.3126L26.2017 7.60759L28.8937 4.98365C28.9895 4.89027 29.0241 4.75056 28.9827 4.6233Z"/>
</g>
<g clip-path="url(#clip2_1343_5)">
<path d="M45.9827 4.6233C45.9413 4.49601 45.8313 4.40325 45.6989 4.38403L41.9789 3.84344L40.3151 0.47251C40.2559 0.352511 40.1337 0.27655 39.9999 0.27655C39.8661 0.27655 39.7439 0.352511 39.6847 0.47251L38.0209 3.84344L34.3009 4.38403C34.1685 4.40325 34.0585 4.49601 34.0171 4.62328C33.9757 4.75056 34.0102 4.89028 34.1061 4.98367L36.7978 7.60759L36.1625 11.3126C36.1398 11.4445 36.1941 11.5778 36.3023 11.6565C36.3636 11.701 36.4361 11.7236 36.509 11.7236C36.565 11.7236 36.6211 11.7103 36.6726 11.6832L39.9999 9.93391L43.3271 11.6832C43.4456 11.7455 43.5891 11.7351 43.6973 11.6565C43.8056 11.5778 43.8598 11.4445 43.8372 11.3126L43.2017 7.60759L45.8937 4.98365C45.9895 4.89027 46.0241 4.75056 45.9827 4.6233Z"/>
</g>
<g clip-path="url(#clip3_1343_5)">
<path d="M62.9827 4.6233C62.9413 4.49601 62.8313 4.40325 62.6989 4.38403L58.9789 3.84344L57.3151 0.47251C57.2559 0.352511 57.1337 0.27655 56.9999 0.27655C56.8661 0.27655 56.7439 0.352511 56.6847 0.47251L55.0209 3.84344L51.3009 4.38403C51.1685 4.40325 51.0585 4.49601 51.0171 4.62328C50.9757 4.75056 51.0102 4.89028 51.1061 4.98367L53.7978 7.60759L53.1625 11.3126C53.1398 11.4445 53.1941 11.5778 53.3023 11.6565C53.3636 11.701 53.4361 11.7236 53.509 11.7236C53.565 11.7236 53.6211 11.7103 53.6726 11.6832L56.9999 9.93391L60.3271 11.6832C60.4456 11.7455 60.5891 11.7351 60.6973 11.6565C60.8056 11.5778 60.8598 11.4445 60.8372 11.3126L60.2017 7.60759L62.8937 4.98365C62.9895 4.89027 63.0241 4.75056 62.9827 4.6233Z"/>
</g>
<g clip-path="url(#clip4_1343_5)">
<path d="M79.9827 4.6233C79.9413 4.49601 79.8313 4.40325 79.6989 4.38403L75.9789 3.84344L74.3151 0.47251C74.2559 0.352511 74.1337 0.27655 73.9999 0.27655C73.8661 0.27655 73.7439 0.352511 73.6847 0.47251L72.0209 3.84344L68.3009 4.38403C68.1685 4.40325 68.0585 4.49601 68.0171 4.62328C67.9757 4.75056 68.0102 4.89028 68.1061 4.98367L70.7978 7.60759L70.1625 11.3126C70.1398 11.4445 70.1941 11.5778 70.3023 11.6565C70.3636 11.701 70.4361 11.7236 70.509 11.7236C70.565 11.7236 70.6211 11.7103 70.6726 11.6832L73.9999 9.93391L77.3271 11.6832C77.4456 11.7455 77.5891 11.7351 77.6973 11.6565C77.8056 11.5778 77.8598 11.4445 77.8372 11.3126L77.2017 7.60759L79.8937 4.98365C79.9895 4.89027 80.0241 4.75056 79.9827 4.6233Z"/>
</g>

</symbol><symbol id="telegram" viewBox="0 0 46 46">
<path fill-rule="evenodd" clip-rule="evenodd" d="M31.2548 14.0513C31.1365 14.0824 30.8813 14.1708 30.6877 14.2476C30.4941 14.3244 26.6577 15.8165 22.1623 17.5634C17.6669 19.3103 13.9105 20.7748 13.8147 20.818C13.016 21.1777 12.7595 21.9351 13.2476 22.4921C13.3392 22.5965 13.4994 22.7294 13.6037 22.7872C13.708 22.845 14.6469 23.2119 15.69 23.6024C16.7332 23.993 17.6077 24.3331 17.6332 24.3583C17.6587 24.3835 18.1123 25.4242 18.6411 26.6709C19.1699 27.9176 19.6417 29.0273 19.6896 29.1368C19.7982 29.385 20.1495 29.757 20.3843 29.8724C20.8012 30.0773 21.2531 30.0655 21.7035 29.838C21.9652 29.7059 22.0687 29.6154 23.0929 28.6236C23.4541 28.2738 23.7709 27.9961 23.7968 28.0065C23.8227 28.0169 24.7326 28.6534 25.8188 29.4209C26.9051 30.1884 27.8854 30.8595 27.9973 30.9122C28.8079 31.2938 29.6437 30.9798 30.0231 30.1512C30.1414 29.8927 30.3138 29.0802 31.5742 22.8395C33.1226 15.1731 33.0886 15.3738 32.923 14.885C32.6969 14.2178 31.9812 13.8601 31.2548 14.0513ZM31.7944 15.2449C31.8203 15.2713 31.8414 15.3494 31.8414 15.4183C31.8414 15.4871 31.5503 16.9865 31.1944 18.7502C30.8386 20.5138 30.2043 23.6609 29.7849 25.7435C29.3654 27.8262 28.9962 29.5817 28.9645 29.6447C28.8692 29.8338 28.7361 29.9007 28.5644 29.8458C28.4847 29.8203 27.6276 29.2393 26.6597 28.5546C25.6917 27.87 24.1748 26.8005 23.2888 26.1779C22.4027 25.5554 21.6812 25.0348 21.6854 25.021C21.6896 25.0072 23.0041 23.7639 24.6065 22.258C27.9552 19.1111 28.0715 18.9974 28.1299 18.8161C28.2519 18.4368 27.9101 18.0084 27.5233 18.0559C27.4213 18.0684 27.1021 18.2203 26.6401 18.4761C25.8811 18.8962 20.5424 21.8336 18.9905 22.6848C18.4935 22.9574 18.0613 23.1805 18.0301 23.1805C17.9989 23.1805 17.7632 23.1013 17.5063 23.0044C17.2495 22.9075 16.4761 22.6165 15.7878 22.3577C15.0995 22.0988 14.5241 21.8756 14.509 21.8617C14.4939 21.8479 17.8464 20.5287 21.959 18.9303C26.0715 17.3319 29.887 15.8488 30.4378 15.6345C31.6668 15.1564 31.6992 15.1471 31.7944 15.2449ZM23.6274 21.5495C23.5959 21.5792 22.831 22.2981 21.9277 23.1471C21.0243 23.9961 20.2588 24.7238 20.2266 24.7641C20.1801 24.8224 20.162 25.0374 20.1393 25.8044C20.1236 26.3362 20.1059 26.8368 20.1001 26.917C20.0912 27.0409 19.9961 26.8427 19.4659 25.5957C19.1229 24.7888 18.8589 24.1219 18.8793 24.1138C18.8997 24.1056 19.9723 23.5145 21.2628 22.8003C22.5534 22.0861 23.6263 21.5004 23.647 21.4986C23.6677 21.4969 23.6589 21.5198 23.6274 21.5495ZM22.0435 26.7546C22.4205 27.0213 22.7365 27.2521 22.7458 27.2675C22.7617 27.2939 21.3881 28.6415 21.316 28.6702C21.2975 28.6776 21.2824 28.1404 21.2824 27.4766C21.2824 26.7262 21.2967 26.2697 21.3202 26.2697C21.341 26.2697 21.6665 26.4879 22.0435 26.7546Z" fill="#25A8E3"/>
</symbol><symbol id="telegram2" viewBox="0 0 16 16">
<g clip-path="url(#clip0_65_1020)">
<path d="M6.278 10.1206L6.01333 13.8433C6.392 13.8433 6.556 13.6806 6.75266 13.4853L8.528 11.7886L12.2067 14.4826C12.8813 14.8586 13.3567 14.6606 13.5387 13.8619L15.9533 2.54728L15.954 2.54661C16.168 1.54928 15.5933 1.15928 14.936 1.40394L0.742663 6.83794C-0.226003 7.21394 -0.211337 7.75394 0.577996 7.99861L4.20666 9.12728L12.6353 3.85328C13.032 3.59061 13.3927 3.73594 13.096 3.99861L6.278 10.1206Z"/>
</g>

</symbol><symbol id="vk" viewBox="0 0 16 10">
<path fill-rule="evenodd" clip-rule="evenodd" d="M5.86726 0.0440933C5.78648 0.065835 5.69498 0.102843 5.66392 0.126368C5.53146 0.226598 5.39569 0.36587 5.35531 0.442952C5.3021 0.544528 5.32872 0.57262 5.52902 0.626208C5.84032 0.709452 6.04075 0.874001 6.1539 1.13922C6.26524 1.40009 6.3217 2.06329 6.29937 2.84708C6.27278 3.77969 6.19341 4.16419 5.99261 4.33315C5.72191 4.56092 5.36131 4.28232 4.75749 3.37889C4.30883 2.70762 3.91338 1.96884 3.49322 1.01703C3.30127 0.582161 3.1537 0.403942 2.93744 0.345724C2.84234 0.320103 2.4265 0.312251 1.53024 0.319071C0.123943 0.329832 0.106174 0.332304 0.0242127 0.530137C-0.0363199 0.676354 0.00353465 0.809995 0.295343 1.43935C1.15419 3.29162 1.95269 4.71965 2.78797 5.89718C4.25108 7.95979 5.65059 8.86928 7.62517 9.04065C8.31224 9.10028 8.87011 9.06799 9.08571 8.95609C9.2599 8.86572 9.31311 8.73061 9.36301 8.25207C9.41591 7.74503 9.45292 7.58099 9.57151 7.32816C9.73152 6.98698 9.97396 6.87509 10.2718 7.00494C10.3898 7.0564 10.5292 7.181 10.8786 7.54739C11.9006 8.61905 12.0328 8.74118 12.3196 8.87851C12.4885 8.95938 12.6646 9.01703 12.8085 9.03865C13.0936 9.08144 15.4835 9.08417 15.631 9.04187C15.974 8.94352 16.0879 8.53734 15.8869 8.12919C15.6847 7.71835 15.3148 7.2797 14.427 6.39771C13.9594 5.93315 13.5371 5.49184 13.4885 5.41698C13.3695 5.23385 13.3661 5.02429 13.4782 4.78663C13.5228 4.692 13.9156 4.13594 14.351 3.55095C15.2424 2.35334 15.5343 1.92511 15.7369 1.51755C16.031 0.925868 16.0738 0.630149 15.889 0.465038C15.7327 0.325359 15.5831 0.313096 14.0445 0.313847C12.7023 0.314504 12.6067 0.318195 12.4825 0.374598C12.3203 0.448207 12.2782 0.515591 12.0318 1.09464C11.5277 2.27958 10.9718 3.23352 10.3814 3.92679C10.1051 4.25116 9.93905 4.37995 9.79706 4.37995C9.62732 4.37995 9.46587 4.21037 9.36698 3.92816C9.34561 3.86729 9.32713 3.22401 9.31611 2.15886C9.29935 0.537677 9.29672 0.48071 9.23237 0.341563C9.16189 0.189152 9.05346 0.0953661 8.87965 0.0363976C8.72352 -0.0165646 6.06734 -0.00977609 5.86726 0.0440933Z"/>
</symbol><symbol id="whatsapp" viewBox="0 0 46 46">
<rect width="46" height="46" rx="4" fill="white"/>
<path d="M29.3401 16.6139C27.6476 14.9293 25.396 14.0009 22.9996 14C20.6086 14 18.3534 14.9275 16.6497 16.6117C14.943 18.2988 14.0022 20.5409 14 22.9166V22.9194V22.921C14.0003 24.359 14.3784 25.8096 15.0962 27.1337L14.0246 32L18.9516 30.8803C20.1995 31.5086 21.5918 31.8399 22.9962 31.8404H22.9998C25.3904 31.8404 27.6455 30.9128 29.3495 29.2284C31.0577 27.54 31.9989 25.3008 32 22.9235C32.0007 20.563 31.0562 18.3221 29.3401 16.6139ZM22.9996 30.4355H22.9964C21.7355 30.435 20.4861 30.1187 19.3835 29.5207L19.1505 29.3943L15.8743 30.1388L16.5859 26.9077L16.4487 26.6714C15.7666 25.4962 15.4062 24.199 15.4062 22.9195C15.4088 18.7781 18.8148 15.4049 22.9993 15.4049C25.0208 15.4057 26.9202 16.1886 28.3476 17.6091C29.7966 19.0516 30.5943 20.9388 30.5936 22.9231C30.592 27.0655 27.1853 30.4355 22.9996 30.4355Z" fill="#40AC69"/>
<path d="M20.5507 18.9875H20.1562C20.0189 18.9875 19.7959 19.0389 19.6073 19.2439C19.4186 19.4491 18.8867 19.945 18.8867 20.9536C18.8867 21.9621 19.6245 22.9366 19.7273 23.0735C19.8303 23.2103 21.1514 25.346 23.2439 26.1677C24.9829 26.8505 25.3369 26.7147 25.7142 26.6805C26.0916 26.6464 26.9322 26.1847 27.1037 25.7061C27.2753 25.2275 27.2753 24.8172 27.2239 24.7315C27.1723 24.646 27.035 24.5948 26.8292 24.4924C26.6233 24.3898 25.6144 23.8855 25.4256 23.817C25.2369 23.7488 25.0997 23.7145 24.9624 23.9199C24.825 24.1248 24.4207 24.5988 24.3006 24.7356C24.1806 24.8725 24.0605 24.8897 23.8545 24.7871C23.6486 24.6842 22.9924 24.464 22.206 23.7658C21.5938 23.2224 21.1691 22.5294 21.0489 22.3242C20.9289 22.1192 21.0362 22.0082 21.1394 21.9059C21.2319 21.8142 21.3569 21.6887 21.4598 21.5691C21.5626 21.4493 21.5919 21.3639 21.6606 21.2271C21.7292 21.0903 21.6949 20.9706 21.6434 20.8681C21.5919 20.7655 21.1968 19.7519 21.0137 19.3465H21.0139C20.8598 19.0051 20.6974 18.9936 20.5507 18.9875Z" fill="#40AC69"/>
</symbol><symbol id="whatsapp2" viewBox="0 0 16 16">
<path d="M8.002 0H7.998C3.587 0 0 3.588 0 8C0 9.75 0.564 11.372 1.523 12.689L0.526 15.661L3.601 14.678C4.866 15.516 6.375 16 8.002 16C12.413 16 16 12.411 16 8C16 3.589 12.413 0 8.002 0ZM12.657 11.297C12.464 11.842 11.698 12.294 11.087 12.426C10.669 12.515 10.123 12.586 8.285 11.824C5.934 10.85 4.42 8.461 4.302 8.306C4.189 8.151 3.352 7.041 3.352 5.893C3.352 4.745 3.935 4.186 4.17 3.946C4.363 3.749 4.682 3.659 4.988 3.659C5.087 3.659 5.176 3.664 5.256 3.668C5.491 3.678 5.609 3.692 5.764 4.063C5.957 4.528 6.427 5.676 6.483 5.794C6.54 5.912 6.597 6.072 6.517 6.227C6.442 6.387 6.376 6.458 6.258 6.594C6.14 6.73 6.028 6.834 5.91 6.98C5.802 7.107 5.68 7.243 5.816 7.478C5.952 7.708 6.422 8.475 7.114 9.091C8.007 9.886 8.731 10.14 8.99 10.248C9.183 10.328 9.413 10.309 9.554 10.159C9.733 9.966 9.954 9.646 10.179 9.331C10.339 9.105 10.541 9.077 10.753 9.157C10.969 9.232 12.112 9.797 12.347 9.914C12.582 10.032 12.737 10.088 12.794 10.187C12.85 10.286 12.85 10.751 12.657 11.297Z"/>
</symbol></svg>