<svg width="20" height="20" viewBox="0 0 20 20" fill="none" xmlns="http://www.w3.org/2000/svg">
<g clip-path="url(#clip0_184_1434)">
<path d="M8.38639 15.7356C7.41651 15.7356 6.62744 16.5247 6.62744 17.4945C6.62744 18.4644 7.41651 19.2535 8.38639 19.2535C9.35627 19.2535 10.1453 18.4644 10.1453 17.4945C10.1453 16.5247 9.35624 15.7356 8.38639 15.7356ZM8.38639 18.2713C7.95803 18.2713 7.60955 17.9228 7.60955 17.4945C7.60955 17.0661 7.95807 16.7176 8.38639 16.7176C8.81471 16.7176 9.16323 17.0661 9.16323 17.4945C9.16323 17.9229 8.81471 18.2713 8.38639 18.2713Z" fill="white"/>
<path d="M14.5558 15.7356C13.5859 15.7356 12.7969 16.5247 12.7969 17.4945C12.7969 18.4644 13.5859 19.2535 14.5558 19.2535C15.5257 19.2535 16.3148 18.4644 16.3148 17.4945C16.3147 16.5247 15.5257 15.7356 14.5558 15.7356ZM14.5558 18.2713C14.1275 18.2713 13.779 17.9228 13.779 17.4945C13.779 17.0661 14.1275 16.7176 14.5558 16.7176C14.9842 16.7176 15.3327 17.0661 15.3327 17.4945C15.3327 17.9229 14.9841 18.2713 14.5558 18.2713Z" fill="white"/>
<path d="M19.779 4.28682C19.5918 4.05698 19.3143 3.92518 19.0177 3.92518H3.72182L3.41292 2.42561C3.34843 2.1128 3.13507 1.85014 2.84206 1.72291L0.686699 0.787364C0.43787 0.679278 0.14869 0.793458 0.0407599 1.04221C-0.0672873 1.29104 0.0468927 1.58026 0.295604 1.68819L2.451 2.62377L4.82702 14.1574C4.92062 14.6116 5.32515 14.9413 5.78894 14.9413H17.5533C17.8245 14.9413 18.0443 14.7215 18.0443 14.4503C18.0443 14.1791 17.8245 13.9592 17.5533 13.9592H5.78898L5.49995 12.5563H17.6442C18.108 12.5563 18.5125 12.2266 18.6061 11.7723L19.9796 5.10534C20.0394 4.81503 19.9663 4.51663 19.779 4.28682ZM17.6442 11.5742H5.29765L3.92417 4.90726L19.0177 4.90729L17.6442 11.5742Z" fill="white"/>
</g>
<defs>
<clipPath id="clip0_184_1434">
<rect width="20" height="20" fill="white"/>
</clipPath>
</defs>
</svg>
