<svg width="60" height="60" viewBox="0 0 60 60" fill="none" xmlns="http://www.w3.org/2000/svg">
<g clip-path="url(#clip0_120_87)">
<path d="M57.0813 37.7129C52.9395 31.7545 45.9167 24.3845 40.2675 19.4953C39.9006 19.1777 39.3453 19.2176 39.0275 19.5847C38.7097 19.9519 38.7497 20.507 39.1169 20.8248C48.7477 29.1606 58.055 40.697 58.2522 43.7252C57.955 43.6968 57.1486 43.5007 55.4113 42.4033C45.9899 36.3967 30.5149 18.9212 30.304 14.9152C30.8963 14.9632 32.8253 15.7164 36.847 18.9322C37.2263 19.2356 37.7794 19.174 38.0826 18.7948C38.3859 18.4156 38.3243 17.8622 37.945 17.559C35.8793 15.9072 34.1219 14.6983 32.721 13.9658C31.5683 13.363 29.9279 12.6728 28.9942 13.6336C28.7051 13.9311 28.5812 14.3025 28.5528 14.6876C27.003 19.0035 26.8387 23.6699 27.9269 28.0972C25.8885 27.9865 23.7677 27.9296 21.6017 27.9296C17.5288 27.9298 0 28.2644 0 32.3485C0 32.7694 0.16875 33.1229 0.415312 33.4169C4.06839 41.5716 12.3675 46.8331 21.602 46.8331C24.6276 46.8331 27.5694 46.2775 30.3456 45.1818C30.7974 45.0036 31.019 44.4929 30.8408 44.0412C30.6625 43.5896 30.1517 43.368 29.7003 43.5462C19.9245 47.4045 8.53991 43.7904 3.16769 34.8924C10.0542 37.0649 24.3951 37.0051 31.6424 36.3287C32.6548 37.7914 33.8419 39.1695 35.1593 40.402C34.2625 41.1126 33.3052 41.7533 32.3029 42.313C31.879 42.5498 31.7273 43.0852 31.964 43.5092C32.2008 43.9331 32.7365 44.0851 33.1602 43.8481C34.3404 43.1889 35.4625 42.4248 36.5065 41.5732C42.8037 46.6669 51.1349 48.2776 58.5115 45.4796C59.0394 45.4361 59.3721 45.2088 59.5618 45.0137C61.0474 43.4848 58.3849 39.5881 57.0813 37.7129ZM1.82144 32.3478C3.6887 30.6197 15.8184 29.1259 28.4404 29.8871C28.9931 31.5733 29.7243 33.1841 30.5801 34.6568C18.0511 35.7007 3.85945 34.2744 1.82144 32.3478ZM29.4937 17.7404C31.8804 22.3035 37.5912 28.7108 41.215 32.4391C41.2151 32.4391 41.2151 32.4391 41.2151 32.4391C44.7912 36.1186 51.1501 42.1455 55.5849 44.5473C40.292 48.2276 26.065 33.052 29.4937 17.7404Z" fill="#33C1CC"/>
</g>
<defs>
<clipPath id="clip0_120_87">
<rect width="60" height="60" fill="white"/>
</clipPath>
</defs>
</svg>
