<svg width="33" height="33" viewBox="0 0 33 33" fill="none" xmlns="http://www.w3.org/2000/svg">
<circle cx="16.5" cy="16.5" r="16.5" fill="#028ECE"/>
<path d="M16.0001 11C15.503 11 15.1001 11.4029 15.1001 11.9V22.1C15.1001 22.5971 15.503 23 16.0001 23C16.4972 23 16.9001 22.5971 16.9001 22.1V11.9C16.9001 11.4029 16.4972 11 16.0001 11Z" fill="white"/>
<path d="M21.1 16.1001H10.9C10.4029 16.1001 10 16.503 10 17.0001C10 17.4972 10.4029 17.9001 10.9 17.9001H21.1C21.5971 17.9001 22 17.4972 22 17.0001C22 16.503 21.5971 16.1001 21.1 16.1001Z" fill="white"/>
</svg>
