<svg width="80" height="12" viewBox="0 0 80 12" fill="none" xmlns="http://www.w3.org/2000/svg">
<g clip-path="url(#clip0_1343_5)">
<path d="M11.9827 4.6233C11.9413 4.49601 11.8313 4.40325 11.6989 4.38403L7.97885 3.84344L6.31515 0.47251C6.25594 0.352511 6.13372 0.27655 5.99991 0.27655C5.86609 0.27655 5.74388 0.352511 5.68466 0.47251L4.02088 3.84344L0.300897 4.38403C0.168499 4.40325 0.0584602 4.49601 0.0171166 4.62328C-0.0242504 4.75056 0.0102494 4.89027 0.106085 4.98367L2.79782 7.60759L2.16248 11.3126C2.13984 11.4445 2.19408 11.5778 2.30233 11.6565C2.36358 11.701 2.43611 11.7236 2.50901 11.7236C2.56497 11.7236 2.62113 11.7103 2.67255 11.6832L5.99989 9.93391L9.32709 11.6832C9.44556 11.7455 9.58907 11.7351 9.69733 11.6565C9.80559 11.5778 9.85984 11.4445 9.83723 11.3126L9.20167 7.60759L11.8937 4.98365C11.9895 4.89027 12.0241 4.75056 11.9827 4.6233Z"/>
</g>
<g clip-path="url(#clip1_1343_5)">
<path d="M28.9827 4.6233C28.9413 4.49601 28.8313 4.40325 28.6989 4.38403L24.9789 3.84344L23.3151 0.47251C23.2559 0.352511 23.1337 0.27655 22.9999 0.27655C22.8661 0.27655 22.7439 0.352511 22.6847 0.47251L21.0209 3.84344L17.3009 4.38403C17.1685 4.40325 17.0585 4.49601 17.0171 4.62328C16.9757 4.75056 17.0102 4.89028 17.1061 4.98367L19.7978 7.60759L19.1625 11.3126C19.1398 11.4445 19.1941 11.5778 19.3023 11.6565C19.3636 11.701 19.4361 11.7236 19.509 11.7236C19.565 11.7236 19.6211 11.7103 19.6726 11.6832L22.9999 9.93391L26.3271 11.6832C26.4456 11.7455 26.5891 11.7351 26.6973 11.6565C26.8056 11.5778 26.8598 11.4445 26.8372 11.3126L26.2017 7.60759L28.8937 4.98365C28.9895 4.89027 29.0241 4.75056 28.9827 4.6233Z"/>
</g>
<g clip-path="url(#clip2_1343_5)">
<path d="M45.9827 4.6233C45.9413 4.49601 45.8313 4.40325 45.6989 4.38403L41.9789 3.84344L40.3151 0.47251C40.2559 0.352511 40.1337 0.27655 39.9999 0.27655C39.8661 0.27655 39.7439 0.352511 39.6847 0.47251L38.0209 3.84344L34.3009 4.38403C34.1685 4.40325 34.0585 4.49601 34.0171 4.62328C33.9757 4.75056 34.0102 4.89028 34.1061 4.98367L36.7978 7.60759L36.1625 11.3126C36.1398 11.4445 36.1941 11.5778 36.3023 11.6565C36.3636 11.701 36.4361 11.7236 36.509 11.7236C36.565 11.7236 36.6211 11.7103 36.6726 11.6832L39.9999 9.93391L43.3271 11.6832C43.4456 11.7455 43.5891 11.7351 43.6973 11.6565C43.8056 11.5778 43.8598 11.4445 43.8372 11.3126L43.2017 7.60759L45.8937 4.98365C45.9895 4.89027 46.0241 4.75056 45.9827 4.6233Z"/>
</g>
<g clip-path="url(#clip3_1343_5)">
<path d="M62.9827 4.6233C62.9413 4.49601 62.8313 4.40325 62.6989 4.38403L58.9789 3.84344L57.3151 0.47251C57.2559 0.352511 57.1337 0.27655 56.9999 0.27655C56.8661 0.27655 56.7439 0.352511 56.6847 0.47251L55.0209 3.84344L51.3009 4.38403C51.1685 4.40325 51.0585 4.49601 51.0171 4.62328C50.9757 4.75056 51.0102 4.89028 51.1061 4.98367L53.7978 7.60759L53.1625 11.3126C53.1398 11.4445 53.1941 11.5778 53.3023 11.6565C53.3636 11.701 53.4361 11.7236 53.509 11.7236C53.565 11.7236 53.6211 11.7103 53.6726 11.6832L56.9999 9.93391L60.3271 11.6832C60.4456 11.7455 60.5891 11.7351 60.6973 11.6565C60.8056 11.5778 60.8598 11.4445 60.8372 11.3126L60.2017 7.60759L62.8937 4.98365C62.9895 4.89027 63.0241 4.75056 62.9827 4.6233Z"/>
</g>
<g clip-path="url(#clip4_1343_5)">
<path d="M79.9827 4.6233C79.9413 4.49601 79.8313 4.40325 79.6989 4.38403L75.9789 3.84344L74.3151 0.47251C74.2559 0.352511 74.1337 0.27655 73.9999 0.27655C73.8661 0.27655 73.7439 0.352511 73.6847 0.47251L72.0209 3.84344L68.3009 4.38403C68.1685 4.40325 68.0585 4.49601 68.0171 4.62328C67.9757 4.75056 68.0102 4.89028 68.1061 4.98367L70.7978 7.60759L70.1625 11.3126C70.1398 11.4445 70.1941 11.5778 70.3023 11.6565C70.3636 11.701 70.4361 11.7236 70.509 11.7236C70.565 11.7236 70.6211 11.7103 70.6726 11.6832L73.9999 9.93391L77.3271 11.6832C77.4456 11.7455 77.5891 11.7351 77.6973 11.6565C77.8056 11.5778 77.8598 11.4445 77.8372 11.3126L77.2017 7.60759L79.8937 4.98365C79.9895 4.89027 80.0241 4.75056 79.9827 4.6233Z"/>
</g>
<defs>
<clipPath id="clip0_1343_5">
<rect width="12" height="12" fill="white"/>
</clipPath>
<clipPath id="clip1_1343_5">
<rect width="12" height="12" fill="white" transform="translate(17)"/>
</clipPath>
<clipPath id="clip2_1343_5">
<rect width="12" height="12" fill="white" transform="translate(34)"/>
</clipPath>
<clipPath id="clip3_1343_5">
<rect width="12" height="12" fill="white" transform="translate(51)"/>
</clipPath>
<clipPath id="clip4_1343_5">
<rect width="12" height="12" fill="white" transform="translate(68)"/>
</clipPath>
</defs>
</svg>
