<svg width="46" height="46" viewBox="0 0 46 46" fill="none" xmlns="http://www.w3.org/2000/svg">
<path fill-rule="evenodd" clip-rule="evenodd" d="M31.2548 14.0513C31.1365 14.0824 30.8813 14.1708 30.6877 14.2476C30.4941 14.3244 26.6577 15.8165 22.1623 17.5634C17.6669 19.3103 13.9105 20.7748 13.8147 20.818C13.016 21.1777 12.7595 21.9351 13.2476 22.4921C13.3392 22.5965 13.4994 22.7294 13.6037 22.7872C13.708 22.845 14.6469 23.2119 15.69 23.6024C16.7332 23.993 17.6077 24.3331 17.6332 24.3583C17.6587 24.3835 18.1123 25.4242 18.6411 26.6709C19.1699 27.9176 19.6417 29.0273 19.6896 29.1368C19.7982 29.385 20.1495 29.757 20.3843 29.8724C20.8012 30.0773 21.2531 30.0655 21.7035 29.838C21.9652 29.7059 22.0687 29.6154 23.0929 28.6236C23.4541 28.2738 23.7709 27.9961 23.7968 28.0065C23.8227 28.0169 24.7326 28.6534 25.8188 29.4209C26.9051 30.1884 27.8854 30.8595 27.9973 30.9122C28.8079 31.2938 29.6437 30.9798 30.0231 30.1512C30.1414 29.8927 30.3138 29.0802 31.5742 22.8395C33.1226 15.1731 33.0886 15.3738 32.923 14.885C32.6969 14.2178 31.9812 13.8601 31.2548 14.0513ZM31.7944 15.2449C31.8203 15.2713 31.8414 15.3494 31.8414 15.4183C31.8414 15.4871 31.5503 16.9865 31.1944 18.7502C30.8386 20.5138 30.2043 23.6609 29.7849 25.7435C29.3654 27.8262 28.9962 29.5817 28.9645 29.6447C28.8692 29.8338 28.7361 29.9007 28.5644 29.8458C28.4847 29.8203 27.6276 29.2393 26.6597 28.5546C25.6917 27.87 24.1748 26.8005 23.2888 26.1779C22.4027 25.5554 21.6812 25.0348 21.6854 25.021C21.6896 25.0072 23.0041 23.7639 24.6065 22.258C27.9552 19.1111 28.0715 18.9974 28.1299 18.8161C28.2519 18.4368 27.9101 18.0084 27.5233 18.0559C27.4213 18.0684 27.1021 18.2203 26.6401 18.4761C25.8811 18.8962 20.5424 21.8336 18.9905 22.6848C18.4935 22.9574 18.0613 23.1805 18.0301 23.1805C17.9989 23.1805 17.7632 23.1013 17.5063 23.0044C17.2495 22.9075 16.4761 22.6165 15.7878 22.3577C15.0995 22.0988 14.5241 21.8756 14.509 21.8617C14.4939 21.8479 17.8464 20.5287 21.959 18.9303C26.0715 17.3319 29.887 15.8488 30.4378 15.6345C31.6668 15.1564 31.6992 15.1471 31.7944 15.2449ZM23.6274 21.5495C23.5959 21.5792 22.831 22.2981 21.9277 23.1471C21.0243 23.9961 20.2588 24.7238 20.2266 24.7641C20.1801 24.8224 20.162 25.0374 20.1393 25.8044C20.1236 26.3362 20.1059 26.8368 20.1001 26.917C20.0912 27.0409 19.9961 26.8427 19.4659 25.5957C19.1229 24.7888 18.8589 24.1219 18.8793 24.1138C18.8997 24.1056 19.9723 23.5145 21.2628 22.8003C22.5534 22.0861 23.6263 21.5004 23.647 21.4986C23.6677 21.4969 23.6589 21.5198 23.6274 21.5495ZM22.0435 26.7546C22.4205 27.0213 22.7365 27.2521 22.7458 27.2675C22.7617 27.2939 21.3881 28.6415 21.316 28.6702C21.2975 28.6776 21.2824 28.1404 21.2824 27.4766C21.2824 26.7262 21.2967 26.2697 21.3202 26.2697C21.341 26.2697 21.6665 26.4879 22.0435 26.7546Z" fill="#25A8E3"/>
</svg>
