<svg width="46" height="46" viewBox="0 0 46 46" fill="none" xmlns="http://www.w3.org/2000/svg">
<rect width="46" height="46" rx="4" fill="white"/>
<path d="M29.3401 16.6139C27.6476 14.9293 25.396 14.0009 22.9996 14C20.6086 14 18.3534 14.9275 16.6497 16.6117C14.943 18.2988 14.0022 20.5409 14 22.9166V22.9194V22.921C14.0003 24.359 14.3784 25.8096 15.0962 27.1337L14.0246 32L18.9516 30.8803C20.1995 31.5086 21.5918 31.8399 22.9962 31.8404H22.9998C25.3904 31.8404 27.6455 30.9128 29.3495 29.2284C31.0577 27.54 31.9989 25.3008 32 22.9235C32.0007 20.563 31.0562 18.3221 29.3401 16.6139ZM22.9996 30.4355H22.9964C21.7355 30.435 20.4861 30.1187 19.3835 29.5207L19.1505 29.3943L15.8743 30.1388L16.5859 26.9077L16.4487 26.6714C15.7666 25.4962 15.4062 24.199 15.4062 22.9195C15.4088 18.7781 18.8148 15.4049 22.9993 15.4049C25.0208 15.4057 26.9202 16.1886 28.3476 17.6091C29.7966 19.0516 30.5943 20.9388 30.5936 22.9231C30.592 27.0655 27.1853 30.4355 22.9996 30.4355Z" fill="#40AC69"/>
<path d="M20.5507 18.9875H20.1562C20.0189 18.9875 19.7959 19.0389 19.6073 19.2439C19.4186 19.4491 18.8867 19.945 18.8867 20.9536C18.8867 21.9621 19.6245 22.9366 19.7273 23.0735C19.8303 23.2103 21.1514 25.346 23.2439 26.1677C24.9829 26.8505 25.3369 26.7147 25.7142 26.6805C26.0916 26.6464 26.9322 26.1847 27.1037 25.7061C27.2753 25.2275 27.2753 24.8172 27.2239 24.7315C27.1723 24.646 27.035 24.5948 26.8292 24.4924C26.6233 24.3898 25.6144 23.8855 25.4256 23.817C25.2369 23.7488 25.0997 23.7145 24.9624 23.9199C24.825 24.1248 24.4207 24.5988 24.3006 24.7356C24.1806 24.8725 24.0605 24.8897 23.8545 24.7871C23.6486 24.6842 22.9924 24.464 22.206 23.7658C21.5938 23.2224 21.1691 22.5294 21.0489 22.3242C20.9289 22.1192 21.0362 22.0082 21.1394 21.9059C21.2319 21.8142 21.3569 21.6887 21.4598 21.5691C21.5626 21.4493 21.5919 21.3639 21.6606 21.2271C21.7292 21.0903 21.6949 20.9706 21.6434 20.8681C21.5919 20.7655 21.1968 19.7519 21.0137 19.3465H21.0139C20.8598 19.0051 20.6974 18.9936 20.5507 18.9875Z" fill="#40AC69"/>
</svg>
