<svg width="60" height="60" viewBox="0 0 60 60" fill="none" xmlns="http://www.w3.org/2000/svg">
<path d="M17.0606 16.4531V14.4358H20.3211V13.2144H17.0606V11.3497H20.8336V10.0303H15.5558V17.7726H20.9318V16.4531H17.0606Z" fill="#33C1CC"/>
<path d="M14.7187 22.4469V21.2935H10.8581V26.9803H12.1718V24.7376H14.2702V23.6722H12.1718V22.4469H14.7187Z" fill="#33C1CC"/>
<path d="M24.9713 21.2935H22.5443V26.9803H23.8579V25.1461C24.8985 25.146 25.6905 25.2891 26.3289 24.5533C27.4844 23.2214 26.477 21.2935 24.9713 21.2935ZM24.9312 24.0008H23.8579V22.4469C24.8447 22.4469 25.2517 22.3297 25.4477 22.8715C25.6109 23.3236 25.4288 24.0008 24.9312 24.0008Z" fill="#33C1CC"/>
<path d="M8.66975 32.2803V33.1455H9.71307V35.8941H10.7056V33.1455H11.7439V32.2803H8.66975Z" fill="#33C1CC"/>
<path d="M26.0223 35.0288L27.6104 33.0183V32.2803H24.8517V33.1455H26.4651L24.7754 35.156V35.8941H27.641V35.0288H26.0223Z" fill="#33C1CC"/>
<path d="M17.3756 32.4098C16.1846 32.9383 15.9108 34.4266 16.7724 35.3518C17.4903 36.1235 18.7033 36.1053 19.4191 35.367C20.8153 33.9272 19.1904 31.605 17.3756 32.4098ZM18.4777 34.9599C18.0061 35.2106 17.2765 34.9454 17.2765 34.0921C17.2763 33.0578 18.3082 32.9095 18.7244 33.4279C19.0465 33.8282 19.0135 34.6744 18.4777 34.9599Z" fill="#33C1CC"/>
<path d="M58.0548 37.8993C57.2169 37.0091 56.1674 36.3779 55.6705 36.1881C52.5115 34.9477 49.9329 33.9351 46.1526 32.4507V32.377H50.8343C51.3198 32.377 51.7134 31.9833 51.7134 31.4979V24.575C52.7549 23.2959 52.7551 21.4675 51.7134 20.1881C51.7134 16.8751 51.9808 14.524 50.1612 11.6126C49.904 11.2008 49.3616 11.0757 48.95 11.3331C48.5382 11.5903 48.413 12.1326 48.6705 12.5444C50.1236 14.8695 49.9553 16.7935 49.9553 19.0303C49.6984 18.9583 49.411 18.9147 49.1386 18.9051V18.6664C49.1386 18.2449 48.8352 17.8821 48.4214 17.8024C48.3977 17.7978 46.0198 17.317 43.9803 14.9264C43.6213 14.5053 42.964 14.5167 42.6207 14.9533C42.5753 15.011 38.2021 20.4998 32.9711 21.4021V17.0381C32.9711 9.87408 41.3499 5.93272 46.8652 10.4852C47.2397 10.7942 47.7937 10.7413 48.1028 10.3669C48.4118 9.99232 48.3589 9.43838 47.9845 9.12924C44.5308 6.27854 39.5248 5.96296 35.7114 8.55772V2.48753C35.7115 1.11597 34.5957 0 33.2241 0H10.7259C10.2404 0 9.8469 0.393632 9.8469 0.879022C9.8469 1.36441 10.2405 1.75804 10.7259 1.75804H33.2242C33.6264 1.75804 33.9536 2.08523 33.9536 2.48742V10.0697C32.2543 11.8999 31.2133 14.3495 31.2133 17.038V31.4979C31.2133 31.9835 31.6069 32.377 32.0923 32.377H36.7737V32.4507C36.7646 32.4543 27.252 36.1895 27.243 36.1933C26.5814 36.4652 25.5795 37.117 24.7767 38.003H8.01948C7.53397 38.003 7.14046 38.3966 7.14046 38.882C7.14046 39.3674 7.53409 39.7611 8.01948 39.7611H23.6082C22.7895 41.5398 22.9696 42.5748 22.9696 47.8494H2.53066C2.12847 47.8494 1.80129 47.5223 1.80129 47.1201V2.48753C1.80129 2.08535 2.12847 1.75816 2.53066 1.75816H7.56116C8.04667 1.75816 8.44018 1.36453 8.44018 0.879139C8.44018 0.393749 8.04667 0 7.56116 0H2.53066C1.1591 0 0.0432434 1.11597 0.0432434 2.48753V47.1204C0.0432434 48.492 1.15922 49.608 2.53078 49.608H22.9698V59.121C22.9698 59.6065 23.3634 60 23.8488 60H32.4766C32.9621 60 33.3556 59.6064 33.3556 59.121C33.3556 58.6356 32.962 58.242 32.4766 58.242H31.113V45.3858C31.113 44.9003 30.7194 44.5068 30.234 44.5068C29.7485 44.5068 29.3549 44.9004 29.3549 45.3858V58.2418H24.7279C24.7279 41.6857 24.6212 42.1306 25.0263 40.9627C25.5622 39.4185 26.8583 38.2697 27.9076 37.8213C29.1141 37.3474 33.0181 35.8144 34.2431 35.3334C34.3671 36.5033 36.5791 57.3798 36.6705 58.2418H35.7656C35.2801 58.2418 34.8865 58.6355 34.8865 59.1209C34.8865 59.6063 35.2802 59.9999 35.7656 59.9999C35.8255 59.9999 37.7054 59.9999 37.6464 59.9999C38.2233 59.9999 58.5006 59.9999 59.0778 59.9999C59.5633 59.9999 59.9568 59.6063 59.9568 59.1209V42.7898C59.9567 40.9441 59.3412 39.2663 58.0548 37.8993ZM49.1386 20.6643C50.7945 20.7829 51.3541 22.994 49.8899 23.8628C49.6558 24.0017 49.3921 24.0806 49.1386 24.0987V20.6643ZM49.0628 25.86C49.3653 25.8558 49.6783 25.8103 49.9553 25.7329V30.6188H46.4072C47.8178 29.4421 48.7947 27.7635 49.0628 25.86ZM32.9712 30.6189V23.1814C33.2459 23.142 33.5184 23.0932 33.7877 23.0334V24.7986C33.7877 27.1352 34.8513 29.2277 36.519 30.6189H32.9712ZM35.5457 24.7986V22.4998H35.5458C39.1823 21.1045 42.0881 18.211 43.3409 16.8166C44.8919 18.3403 46.4859 19.0379 47.3806 19.3346C47.3806 20.1184 47.3806 24.0839 47.3806 24.7987C47.3806 28.8541 43.3203 31.6983 39.3645 30.2644C37.1382 29.4465 35.5457 27.3051 35.5457 24.7986ZM36.5562 40.4801L35.9403 34.6669C38.8335 33.5307 38.5318 33.9604 38.5318 31.8287C40.4003 32.5832 42.6081 32.5499 44.3945 31.8287C44.3945 33.9905 44.119 33.541 46.986 34.6669L46.3701 40.4801H36.5562ZM44.4861 58.2417H38.4383L36.7426 42.238H46.1413L44.4861 58.2417ZM58.1985 58.2417H53.6502V45.3858C53.6502 44.9003 53.2566 44.5068 52.7712 44.5068C52.2858 44.5068 51.8922 44.9004 51.8922 45.3858V58.2418H46.2561L48.6834 35.3334C49.4166 35.6213 54.2747 37.529 55.0174 37.8208C55.1456 37.8759 56.4467 38.4612 57.3447 39.8329C58.4765 41.5619 58.1985 41.3808 58.1985 58.2417Z" fill="#33C1CC"/>
<path d="M28.2911 28.5894H8.01948C7.53397 28.5894 7.14046 28.983 7.14046 29.4684C7.14046 29.9539 7.53409 30.3474 8.01948 30.3474H28.2911C28.7766 30.3474 29.1701 29.9538 29.1701 29.4684C29.1701 28.983 28.7766 28.5894 28.2911 28.5894Z" fill="#33C1CC"/>
</svg>
