<svg width="60" height="60" viewBox="0 0 60 60" fill="none" xmlns="http://www.w3.org/2000/svg">
<path d="M40.3053 58.3784C40.1986 58.379 40.0929 58.3585 39.9941 58.3182C39.8953 58.2778 39.8054 58.2184 39.7297 58.1432L10.7675 29.1892C10.6165 29.0373 10.5317 28.8318 10.5317 28.6176C10.5317 28.4034 10.6165 28.1979 10.7675 28.0459C13.7265 25.0871 17.7397 23.4248 21.9243 23.4248C26.1088 23.4248 30.122 25.0871 33.081 28.0459L49.2324 44.1892C49.3834 44.3411 49.4682 44.5466 49.4682 44.7608C49.4682 44.975 49.3834 45.1805 49.2324 45.3324C49.157 45.4084 49.0673 45.4687 48.9685 45.5099C48.8697 45.5511 48.7637 45.5723 48.6567 45.5723C48.5497 45.5723 48.4437 45.5511 48.3449 45.5099C48.2461 45.4687 48.1564 45.4084 48.081 45.3324L31.9297 29.1892C29.371 26.6285 25.9296 25.1439 22.3112 25.0399C18.6928 24.9359 15.1717 26.2203 12.4702 28.6297L40.8486 57.0081C40.9625 57.121 41.0403 57.2652 41.0722 57.4223C41.1041 57.5795 41.0888 57.7426 41.028 57.891C40.9673 58.0394 40.8639 58.1664 40.7309 58.2561C40.5979 58.3457 40.4414 58.3939 40.281 58.3946L40.3053 58.3784Z" fill="#33C1CC"/>
<path d="M24.6729 42.7541C24.5262 42.7537 24.3824 42.7135 24.2568 42.6378C24.1311 42.5621 24.0283 42.4538 23.9594 42.3243C23.9095 42.2283 23.8794 42.1232 23.8708 42.0152C23.8621 41.9073 23.8752 41.7988 23.9092 41.696C23.9432 41.5932 23.9975 41.4983 24.0688 41.4168C24.14 41.3354 24.2269 41.269 24.3243 41.2216C24.904 40.9405 25.4068 40.5228 25.7895 40.0045C26.1722 39.4862 26.4234 38.8827 26.5216 38.246C26.7972 36.3811 25.881 34.1919 23.9999 32.3595C20.5621 28.9135 15.081 27.5514 11.7567 29.3189C11.5674 29.4195 11.3459 29.441 11.1408 29.3787C10.9357 29.3164 10.7635 29.1754 10.6621 28.9865C10.5616 28.7972 10.5401 28.5757 10.6024 28.3706C10.6647 28.1654 10.8057 27.9933 10.9945 27.8919C14.8864 25.8081 21.2351 27.3 25.1513 31.2081C27.3891 33.4541 28.4756 36.073 28.1189 38.5054C27.9857 39.3937 27.6407 40.237 27.1129 40.9638C26.585 41.6906 25.89 42.2796 25.0864 42.6811C24.9574 42.7413 24.8148 42.7665 24.6729 42.7541Z" fill="#33C1CC"/>
<path d="M39.1866 23.4081C35.8384 23.4081 32.6274 22.078 30.2599 19.7105C27.8923 17.343 26.5623 14.1319 26.5623 10.7838C26.5588 9.12658 26.8838 7.48516 27.5184 5.95431C28.153 4.42346 29.0847 3.03353 30.2596 1.86484C30.335 1.78884 30.4246 1.72852 30.5234 1.68736C30.6222 1.64619 30.7282 1.625 30.8353 1.625C30.9423 1.625 31.0483 1.64619 31.1471 1.68736C31.2459 1.72852 31.3356 1.78884 31.4109 1.86484L48.1136 18.5675C48.2646 18.7195 48.3494 18.925 48.3494 19.1392C48.3494 19.3534 48.2646 19.5589 48.1136 19.7108C46.944 20.8866 45.5527 21.8189 44.0204 22.4535C42.4881 23.0881 40.8451 23.4126 39.1866 23.4081ZM30.8596 3.59997C29.0424 5.70318 28.0886 8.41622 28.1898 11.1939C28.291 13.9715 29.4397 16.608 31.4051 18.5734C33.3705 20.5388 36.0069 21.6875 38.7846 21.7887C41.5622 21.8899 44.2753 20.9361 46.3785 19.1189L30.8596 3.59997Z" fill="#33C1CC"/>
<path d="M37.2242 19.2084C36.2816 19.2073 35.3493 19.0125 34.4852 18.6359C33.6211 18.2594 32.8437 17.7092 32.2011 17.0196C31.5586 16.3299 31.0648 15.5155 30.7503 14.6269C30.4357 13.7384 30.3073 12.7946 30.3729 11.8543C30.3801 11.7478 30.4082 11.6437 30.4558 11.548C30.5033 11.4524 30.5693 11.3671 30.6499 11.297C30.7306 11.2269 30.8242 11.1735 30.9256 11.1397C31.0269 11.106 31.1339 11.0925 31.2404 11.1003C31.4542 11.1168 31.6527 11.2174 31.7925 11.38C31.9323 11.5426 32.002 11.754 31.9864 11.9678C31.9361 12.7166 32.0466 13.4674 32.3104 14.1699C32.5742 14.8725 32.9852 15.5105 33.5158 16.0411C34.0465 16.5717 34.6844 16.9827 35.387 17.2465C36.0895 17.5103 36.8404 17.6208 37.5891 17.5705C37.8041 17.5544 38.0168 17.6244 38.1802 17.765C38.3437 17.9057 38.4446 18.1055 38.4607 18.3205C38.4768 18.5356 38.4069 18.7482 38.2662 18.9117C38.1256 19.0751 37.9258 19.176 37.7107 19.1922L37.2242 19.2084Z" fill="#33C1CC"/>
</svg>
