<?xml version="1.0" standalone="no"?>
<!DOCTYPE svg PUBLIC "-//W3C//DTD SVG 20010904//EN"
"http://www.w3.org/TR/2001/REC-SVG-20010904/DTD/svg10.dtd">
<svg version="1.0" xmlns="http://www.w3.org/2000/svg"
width="100.000000pt" height="100.000000pt" viewBox="0 0 100.000000 100.000000"
preserveAspectRatio="xMidYMid meet">
<metadata>
Created by potrace 1.14, written by Peter Selinger 2001-2017
</metadata>
<g transform="translate(0.000000,100.000000) scale(0.100000,-0.100000)"
fill="#000000" stroke="none">
<path d="M380 936 c-114 -33 -235 -108 -310 -193 -68 -77 -70 -86 -13 -62 46
20 240 89 249 89 3 0 -11 -14 -30 -31 -20 -17 -50 -60 -68 -97 -28 -57 -33
-76 -32 -142 0 -116 51 -213 142 -271 l46 -29 -60 0 c-32 1 -107 13 -167 28
-59 16 -107 25 -107 21 0 -4 26 -31 58 -60 217 -199 550 -171 767 63 55 59
115 151 115 176 0 6 -36 -11 -81 -39 -111 -69 -113 -70 -90 -18 59 133 17 300
-97 386 -24 18 -39 33 -34 33 25 0 136 -46 220 -91 l94 -51 -28 53 c-44 82
-130 161 -221 205 -75 36 -83 38 -193 41 -73 1 -131 -2 -160 -11z m237 -236
c39 -22 61 -44 83 -83 28 -47 31 -59 28 -123 -4 -96 -40 -156 -117 -196 -115
-60 -248 -24 -311 85 -64 112 -28 253 83 317 43 25 63 30 117 30 54 0 74 -5
117 -30z"/>
<path d="M422 630 c-130 -79 -74 -280 78 -280 86 0 150 65 150 152 l0 46 -29
-11 c-59 -22 -109 31 -82 89 10 24 10 24 -37 24 -29 0 -59 -8 -80 -20z m103
-130 c0 -18 -6 -26 -23 -28 -13 -2 -25 3 -28 12 -10 26 4 48 28 44 17 -2 23
-10 23 -28z"/>
</g>
</svg>
